<mxfile host="Electron" modified="2023-11-25T03:57:35.377Z" agent="Mozilla/5.0 (Windows NT 10.0; Win64; x64) AppleWebKit/537.36 (KHTML, like Gecko) draw.io/21.2.8 Chrome/112.0.5615.165 Electron/24.2.0 Safari/537.36" etag="NpKWUxSNfn3GB-av6L0b" version="21.2.8" type="device">
  <diagram name="第 1 页" id="MV9iiwtvkkRCQwVIXTja">
    <mxGraphModel dx="1276" dy="656" grid="1" gridSize="10" guides="1" tooltips="1" connect="1" arrows="1" fold="1" page="1" pageScale="1" pageWidth="3300" pageHeight="4681" math="0" shadow="0">
      <root>
        <mxCell id="0" />
        <mxCell id="1" parent="0" />
        <mxCell id="5pEuGjXElPdgstFfbfj8-7" value="浏览器" style="rounded=1;whiteSpace=wrap;html=1;arcSize=3;align=center;verticalAlign=top;fontSize=20;fillColor=#f5f5f5;fontColor=#333333;strokeColor=none;" parent="1" vertex="1">
          <mxGeometry x="750" y="200" width="220" height="320" as="geometry" />
        </mxCell>
        <mxCell id="5pEuGjXElPdgstFfbfj8-1" value="SpringBoot" style="rounded=1;whiteSpace=wrap;html=1;arcSize=3;verticalAlign=top;align=center;fontSize=20;fillColor=#f5f5f5;fontColor=#333333;strokeColor=none;" parent="1" vertex="1">
          <mxGeometry x="1190" y="200" width="220" height="320" as="geometry" />
        </mxCell>
        <mxCell id="5pEuGjXElPdgstFfbfj8-11" value="1.输入用户名和密码，并请求登录" style="rounded=0;whiteSpace=wrap;html=1;fontSize=15;fillColor=#d5e8d4;strokeColor=#82b366;align=left;" parent="1" vertex="1">
          <mxGeometry x="770" y="260" width="180" height="60" as="geometry" />
        </mxCell>
        <mxCell id="5pEuGjXElPdgstFfbfj8-12" value="2.验证用户名和密码，若合法，则生成Token，Token中通常会包含登录用户的标识，然后Token会响应给客户端" style="rounded=0;whiteSpace=wrap;html=1;fontSize=15;fillColor=#dae8fc;strokeColor=#6c8ebf;align=left;" parent="1" vertex="1">
          <mxGeometry x="1210" y="280" width="180" height="100" as="geometry" />
        </mxCell>
        <mxCell id="5pEuGjXElPdgstFfbfj8-14" value="3.将Token保存到浏览器的本地存储(Local Storage)" style="rounded=0;whiteSpace=wrap;html=1;fontSize=15;fillColor=#d5e8d4;strokeColor=#82b366;align=left;" parent="1" vertex="1">
          <mxGeometry x="770" y="350" width="180" height="60" as="geometry" />
        </mxCell>
        <mxCell id="5pEuGjXElPdgstFfbfj8-15" value="4.验证Token，若Token有效，则从Token中提取用户信息，并提供响应" style="rounded=0;whiteSpace=wrap;html=1;fontSize=15;fillColor=#dae8fc;strokeColor=#6c8ebf;align=left;" parent="1" vertex="1">
          <mxGeometry x="1210" y="410" width="180" height="90" as="geometry" />
        </mxCell>
        <mxCell id="5pEuGjXElPdgstFfbfj8-16" value="5.后续请求均携上述Token" style="rounded=0;whiteSpace=wrap;html=1;fontSize=15;fillColor=#d5e8d4;strokeColor=#82b366;align=left;" parent="1" vertex="1">
          <mxGeometry x="770" y="440" width="180" height="60" as="geometry" />
        </mxCell>
        <mxCell id="5pEuGjXElPdgstFfbfj8-19" value="" style="endArrow=classic;html=1;rounded=0;exitX=1;exitY=0.75;exitDx=0;exitDy=0;entryX=0;entryY=0.25;entryDx=0;entryDy=0;fillColor=#d5e8d4;strokeColor=#82b366;strokeWidth=2;align=left;" parent="1" source="5pEuGjXElPdgstFfbfj8-11" target="5pEuGjXElPdgstFfbfj8-12" edge="1">
          <mxGeometry width="50" height="50" relative="1" as="geometry">
            <mxPoint x="1350" y="500" as="sourcePoint" />
            <mxPoint x="710" y="575" as="targetPoint" />
          </mxGeometry>
        </mxCell>
        <mxCell id="5pEuGjXElPdgstFfbfj8-20" value="" style="endArrow=classic;html=1;rounded=0;exitX=0;exitY=0.75;exitDx=0;exitDy=0;entryX=1;entryY=0.5;entryDx=0;entryDy=0;fillColor=#dae8fc;strokeColor=#6c8ebf;strokeWidth=2;align=left;" parent="1" source="5pEuGjXElPdgstFfbfj8-12" target="5pEuGjXElPdgstFfbfj8-14" edge="1">
          <mxGeometry width="50" height="50" relative="1" as="geometry">
            <mxPoint x="1230" y="225" as="sourcePoint" />
            <mxPoint x="590" y="300" as="targetPoint" />
          </mxGeometry>
        </mxCell>
        <mxCell id="5pEuGjXElPdgstFfbfj8-21" value="" style="endArrow=classic;html=1;rounded=0;entryX=0;entryY=0.5;entryDx=0;entryDy=0;fillColor=#d5e8d4;strokeColor=#82b366;strokeWidth=2;align=left;exitX=1;exitY=0.5;exitDx=0;exitDy=0;" parent="1" source="5pEuGjXElPdgstFfbfj8-16" target="5pEuGjXElPdgstFfbfj8-15" edge="1">
          <mxGeometry width="50" height="50" relative="1" as="geometry">
            <mxPoint x="1040" y="395" as="sourcePoint" />
            <mxPoint x="600" y="310" as="targetPoint" />
          </mxGeometry>
        </mxCell>
      </root>
    </mxGraphModel>
  </diagram>
</mxfile>
